<svg xmlns="http://www.w3.org/2000/svg" viewBox="0 0 408 386" preserveAspectRatio="xMidYMid meet">
 <g fill="#6457df">
  <path d="M170.9 358.3 c-2.7 -7.2 -5.8 -11.9 -10.9 -16.7 -7 -6.4 -13.7 -10 -23.7 -12.8 -7.5 -2.1 -10 -2.2 -58.5 -2.6 l-50.8 -0.3 0 -130 0 -129.9 9 0 9 0 0.2 -16.7 0.3 -16.8 20 0.1 c11 0.1 24.1 0.6 29 1.3 28.8 3.7 59.4 12.9 79.3 23.7 9.6 5.3 22.6 14.8 27.1 20 l3.2 3.6 2 -2.6 c1.1 -1.3 5.3 -5.2 9.4 -8.5 28.8 -23.1 74.6 -36.7 126.5 -37.3 l20.5 -0.3 0.3 16.3 0.2 16.2 7.4 0 c4.1 0 8.1 0.3 9 0.6 1.4 0.6 1.6 13 1.6 130.4 l0 129.9 -50.2 0.4 c-42 0.3 -51.4 0.6 -57 2 -16.2 3.9 -29.3 13.5 -35 25.8 l-3.2 6.9 -31.8 0 -31.8 0 -1.1 -2.7z m13 -247.7 c-7.3 -14.3 -30.9 -27.5 -64.3 -36.1 -12.4 -3.2 -31.3 -6.5 -37 -6.5 l-2.6 0 0 101.9 0 101.8 7.6 0.7 c29.5 2.4 70.3 16.4 91.6 31.1 l6.3 4.4 0.3 -96.6 c0.2 -96.4 0.2 -96.7 -1.9 -100.7z m46.8 191.6 c7.8 -5.4 25.8 -14 38.3 -18.1 17.8 -6 46.4 -12.1 56.4 -12.1 l2.6 0 0 -102 0 -102 -3.4 0 c-6.8 0 -32.3 4.9 -44.1 8.5 -23.7 7.2 -38.5 14.6 -48.9 24.4 -10.4 9.9 -9.6 -0.3 -9.6 110.4 0 77.2 0.3 96.7 1.3 96 0.6 -0.4 4 -2.7 7.4 -5.1z"/>
 </g>
</svg>